<svg width="149" height="45" viewBox="0 0 149 45" fill="none" xmlns="http://www.w3.org/2000/svg">
<path d="M41.6719 21.2451L43.8076 18.702C45.1046 19.6945 46.5958 20.1054 47.9938 20.1054C48.7083 20.1054 49.0189 19.9193 49.0189 19.5937V19.5627C49.0189 19.2215 48.6461 19.0354 47.3569 18.7796C44.6697 18.2368 42.3087 17.4615 42.3087 14.9417V14.9106C42.3087 12.6389 44.0872 10.8789 47.388 10.8789C49.6946 10.8789 51.4032 11.4216 52.7934 12.5149L50.8441 15.213C49.7179 14.3912 48.3666 14.0345 47.256 14.0345C46.6579 14.0345 46.3861 14.2361 46.3861 14.5307V14.5617C46.3861 14.8874 46.7123 15.089 47.9782 15.3293C51.0382 15.8953 53.0886 16.7792 53.0886 19.1905V19.2215C53.0886 21.7336 51.0227 23.2688 47.8074 23.2688C45.3765 23.2688 43.1941 22.5865 41.6719 21.2529V21.2451Z" fill="#112135"/>
<path d="M60.8932 14.4688H57.3672V11.0884H68.4111V14.4688H64.8851V23.0363H60.8854V14.4688H60.8932Z" fill="#112135"/>
<path d="M76.1928 11.0029H80.1615L85.2097 23.0361H80.8682L80.2314 21.4312H76.0453L75.4317 23.0361H71.1602L76.2083 11.0029H76.1928ZM79.2373 18.6012L78.1422 15.7015L77.0471 18.6012H79.2373Z" fill="#112135"/>
<path d="M91.4713 14.4688H87.9453V11.0884H98.9892V14.4688H95.4632V23.0363H91.4635V14.4688H91.4713Z" fill="#112135"/>
<path d="M104.146 11.0884H114.352V14.368H108.076V15.5776H113.924V18.4618H108.076V19.7566H114.437V23.0363H104.146V11.0884Z" fill="#112135"/>
<path d="M119.756 11.0884H125.604C127.724 11.0884 129.076 11.6156 129.914 12.453C130.629 13.1663 131.009 14.0579 131.009 15.2829V15.314C131.009 17.0585 130.101 18.268 128.648 18.9658L131.437 23.0285H126.87L124.61 19.6171H123.756V23.0285H119.756V11.0884ZM125.488 16.7716C126.443 16.7716 127.025 16.3451 127.025 15.6086V15.5776C127.025 14.81 126.427 14.4301 125.503 14.4301H123.756V16.7716H125.48H125.488Z" fill="#112135"/>
<path d="M139.972 11.0029H143.941L148.989 23.0361H144.648L144.011 21.4312H139.825L139.211 23.0361H134.939L139.988 11.0029H139.972ZM143.017 18.6012L141.921 15.7015L140.826 18.6012H143.017Z" fill="#112135"/>
<path d="M31.7537 0.934082H30.9395V44.9012H31.7537V0.934082Z" fill="#F4F4F4"/>
<path d="M42.3516 32.0547H44.3009C44.7825 32.0547 45.1553 32.1865 45.396 32.4268C45.5902 32.6207 45.6834 32.8533 45.6834 33.1402V33.1557C45.6834 33.6286 45.4348 33.8922 45.132 34.0628C45.6135 34.2489 45.9164 34.528 45.9164 35.094V35.1095C45.9164 35.8771 45.295 36.257 44.3475 36.257H42.3516V32.0702V32.0547ZM44.7669 33.2952C44.7669 33.0239 44.5495 32.861 44.1611 32.861H43.2525V33.7449H44.1068C44.5106 33.7449 44.7747 33.6131 44.7747 33.303V33.2875L44.7669 33.2952ZM44.3165 34.5203H43.2525V35.4429H44.3475C44.7592 35.4429 44.9999 35.2956 44.9999 34.9855V34.9699C44.9999 34.6908 44.7902 34.5125 44.3165 34.5125V34.5203Z" fill="#00A9FF"/>
<path d="M50.3273 32.0239H51.1816L52.9834 36.2417H52.0204L51.6398 35.3036H49.8613L49.4808 36.2417H48.541L50.3428 32.0239H50.3273ZM51.2981 34.4895L50.7389 33.1327L50.1797 34.4895H51.2981Z" fill="#00A9FF"/>
<path d="M55.834 32.0547H56.7582V35.4041H58.8474V36.2415H55.834V32.0547Z" fill="#00A9FF"/>
<path d="M63.1886 32.0239H64.0429L65.8448 36.2417H64.8817L64.5012 35.3036H62.7226L62.3421 36.2417H61.4023L63.2042 32.0239H63.1886ZM64.1594 34.4895L63.6003 33.1327L63.0411 34.4895H64.1594Z" fill="#00A9FF"/>
<path d="M68.6953 32.0547H69.5496L71.5145 34.6366V32.0547H72.4232V36.2415H71.6388L69.604 33.5743V36.2415H68.6953V32.0547Z" fill="#00A9FF"/>
<path d="M75.459 34.1636V34.148C75.459 32.954 76.3599 31.9849 77.6491 31.9849C78.4413 31.9849 78.9151 32.2485 79.3034 32.6284L78.7131 33.3029C78.3869 33.0083 78.0607 32.83 77.6414 32.83C76.9346 32.83 76.422 33.4192 76.422 34.1325V34.148C76.422 34.8691 76.9191 35.4661 77.6414 35.4661C78.1229 35.4661 78.418 35.2723 78.7442 34.9777L79.3344 35.5669C78.8995 36.0244 78.4258 36.3112 77.6103 36.3112C76.3754 36.3112 75.459 35.3576 75.459 34.1558V34.1636Z" fill="#00A9FF"/>
<path d="M82.3184 32.0547H83.2426V36.2415H82.3184V32.0547Z" fill="#00A9FF"/>
<path d="M86.5039 32.0547H87.3582L89.3231 34.6366V32.0547H90.2318V36.2415H89.4474L87.4126 33.5743V36.2415H86.5039V32.0547Z" fill="#00A9FF"/>
<path d="M93.2598 34.1636V34.148C93.2598 32.954 94.1917 31.9849 95.4577 31.9849C96.211 31.9849 96.6692 32.1864 97.1042 32.5586L96.5217 33.2564C96.1955 32.985 95.9081 32.83 95.4266 32.83C94.7587 32.83 94.2228 33.4192 94.2228 34.1325V34.148C94.2228 34.9156 94.7509 35.4739 95.4965 35.4739C95.8305 35.4739 96.1334 35.3886 96.3663 35.2258V34.6288H95.4344V33.8302H97.2595V35.6522C96.8246 36.0166 96.2343 36.319 95.4654 36.319C94.1607 36.319 93.2598 35.4041 93.2598 34.1636Z" fill="#00A9FF"/>
<path d="M105.336 32.9076H104.062V32.0547H107.542V32.9076H106.268V36.2492H105.344V32.9076H105.336Z" fill="#00A9FF"/>
<path d="M110.455 32.0547H111.379V33.7139H113.08V32.0547H114.004V36.2415H113.08V34.559H111.379V36.2415H110.455V32.0547Z" fill="#00A9FF"/>
<path d="M117.221 32.0547H120.389V32.8765H118.137V33.7294H120.118V34.5513H118.137V35.4274H120.413V36.2492H117.213V32.0624L117.221 32.0547Z" fill="#00A9FF"/>
<path d="M127.27 34.1636V34.148C127.27 32.954 128.202 31.9849 129.467 31.9849C130.221 31.9849 130.679 32.1864 131.114 32.5586L130.531 33.2564C130.205 32.985 129.918 32.83 129.436 32.83C128.768 32.83 128.233 33.4192 128.233 34.1325V34.148C128.233 34.9156 128.761 35.4739 129.506 35.4739C129.84 35.4739 130.143 35.3886 130.376 35.2258V34.6288H129.444V33.8302H131.269V35.6522C130.834 36.0166 130.244 36.319 129.475 36.319C128.17 36.319 127.27 35.4041 127.27 34.1636Z" fill="#00A9FF"/>
<path d="M134.367 32.0547H136.286C136.821 32.0547 137.233 32.202 137.513 32.4811C137.746 32.7137 137.87 33.0471 137.87 33.4425V33.458C137.87 34.1326 137.505 34.559 136.969 34.7606L137.994 36.257H136.915L136.014 34.9157H135.291V36.257H134.367V32.0702V32.0547ZM136.223 34.0861C136.674 34.0861 136.93 33.8457 136.93 33.4968V33.4813C136.93 33.0859 136.651 32.8843 136.208 32.8843H135.291V34.0861H136.223Z" fill="#00A9FF"/>
<path d="M140.955 32.0547H141.879V36.2415H140.955V32.0547Z" fill="#00A9FF"/>
<path d="M145.133 32.0547H146.772C148.092 32.0547 149.001 32.9618 149.001 34.1403V34.1558C149.001 35.3344 148.092 36.2492 146.772 36.2492H145.133V32.0624V32.0547ZM146.057 32.8843V35.4119H146.772C147.525 35.4119 148.037 34.9002 148.037 34.1636V34.1481C148.037 33.4038 147.525 32.8843 146.772 32.8843H146.057Z" fill="#00A9FF"/>
<path d="M20.4451 20.7966L16.8177 17.2151H16.8255L14.488 14.9381L14.4411 14.8995C12.5257 13.1705 9.57845 13.2399 7.72564 15.0693C5.94319 16.8291 5.82592 19.6928 7.45983 21.5839L9.93025 24.0307L11.3609 25.3661L12.5961 26.5933C13.1121 27.1182 13.1043 27.9673 12.5805 28.4844C12.3225 28.7391 11.9785 28.8781 11.6111 28.8781C11.2436 28.8781 10.9075 28.7391 10.6495 28.4921L7.68655 25.5436L4.79398 22.6954C2.68318 20.1405 3.15225 15.9106 5.86501 13.2399C8.60123 10.5384 12.5961 10.1602 15.348 12.306C17.2164 13.8266 18.6783 15.3317 18.6861 15.3471L21.2191 12.9543C21.1565 12.8849 19.6086 11.2948 17.5526 9.61213C13.3544 6.33167 7.39729 6.82567 3.38678 10.7854C-0.592459 14.6988 -1.14752 21.0667 2.15939 24.957L5.57575 28.3378L7.04549 29.8043L8.05398 30.7923C8.10089 30.8464 8.13998 30.885 8.18689 30.9313C9.10156 31.8344 10.3211 32.3361 11.6267 32.3361C12.9323 32.3361 14.1518 31.8344 15.0743 30.9236C16.5441 29.4724 16.8802 27.3112 16.0672 25.5359C15.7154 24.7331 15.0509 24.0925 15.0509 24.0925L13.9486 22.9887L12.1896 21.3369L10.1101 19.2837C9.68789 18.7511 9.7348 17.987 10.2195 17.5084C10.7277 17.0067 11.5329 16.9681 12.0645 17.4235L14.0346 19.3377L17.7949 23.0504C20.0308 25.8292 19.6712 30.0745 16.9506 32.7606C15.5356 34.1577 13.6515 34.9296 11.6423 34.9296C9.96933 34.9296 8.39015 34.4047 7.06895 33.4013L7.04549 33.3858C6.88132 33.2623 6.71715 33.1234 6.56079 32.9845L6.14645 32.6371L3.70731 30.2289L1.22908 32.6757L3.71513 35.1303L4.20765 35.5548C4.43436 35.7632 4.67671 35.9562 4.91906 36.1414L4.95033 36.1646C6.88132 37.6234 9.18756 38.3876 11.6345 38.3876C14.5818 38.3876 17.3493 37.2606 19.4288 35.2074C23.4941 31.1937 23.9319 24.9956 20.4608 20.7966H20.4451Z" fill="url(#paint0_linear_301_1172)"/>
<defs>
<linearGradient id="paint0_linear_301_1172" x1="11.3989" y1="7.44775" x2="11.3989" y2="38.3876" gradientUnits="userSpaceOnUse">
<stop stop-color="#00A9FF"/>
<stop offset="1" stop-color="#00D7A0"/>
</linearGradient>
</defs>
</svg>
